# xmcd
#
# Track frame offsets: 
#        150
#        20620
#        42380
#        61772
#        82425
#        102492
#        122177
#        140602
#        160152
#        175860
#        193507
#        211612
#
# Disc length: 3036 seconds
#
# Revision: 7
# Processed by: cddbd v1.5.2PL0 Copyright (c) Steve Scherf et al.
# Submitted via: ExactAudioCopyFreeDBPlugin 1.0
#
DISCID=a90bda0c
DTITLE=田村ゆかり - Sincerely Dears...
DYEAR=2007
DGENRE=JPop
TTITLE0=Summer Melody
TTITLE1=Love Parade
TTITLE2=Baby's Breath
TTITLE3=Lovely Magic
TTITLE4=眠れぬ夜につかまえて
TTITLE5=夢見月のアリス
TTITLE6=Little Wish ~lyrical Step~
TTITLE7=恋せよ女の子
TTITLE8=Spiritual Garden
TTITLE9=童話迷宮
TTITLE10=Princess Rose
TTITLE11=YOURS EVER
EXTD=YEAR: 2007
EXTT0=
EXTT1=
EXTT2=
EXTT3=
EXTT4=
EXTT5=
EXTT6=
EXTT7=
EXTT8=
EXTT9=
EXTT10=
EXTT11=
PLAYORDER=
